# Blender v2.79 (sub 0) OBJ File: 'korytarz.blend'
# www.blender.org
mtllib korytarz.mtl
o Drzwi_ID179.004
v 5.840001 2.100000 -16.900000
v 0.000000 0.900000 -19.615000
v 0.000000 0.900000 -10.275001
v 5.840001 2.100000 -15.799998
v 0.000000 2.100000 -10.275001
v 0.000000 2.100000 -19.615000
v 5.840001 0.000000 -16.900000
v 5.840001 0.000000 -15.799998
v 0.000000 3.200001 -0.900000
v 5.239999 3.200001 -19.599998
v 5.239999 3.200001 0.000000
v 0.000000 3.200001 -8.075000
v 5.539999 3.200001 -19.599998
v 5.539999 3.200001 -20.580000
v 0.000000 3.200001 -14.375000
v 0.300000 3.200001 -0.900000
v 0.000000 3.200001 -7.400000
v 0.870000 3.200001 0.000000
v 2.470000 3.200001 0.000000
v 0.000000 0.000000 -4.970020
v 2.470000 3.200001 0.280000
v 1.640000 0.000000 -22.589998
v 1.640000 2.730000 -22.589998
v 5.239999 0.900000 -10.400000
v 5.239999 2.100000 -15.799998
v 5.239999 0.900000 -9.299999
v 5.239999 2.100000 -0.000000
v 5.840001 0.000000 -9.299999
v 0.000000 2.100000 -18.315001
v 0.000000 0.000000 -10.275001
v 0.000000 0.900000 -21.815001
v 0.000000 2.100000 -14.375000
v 0.000000 2.100000 -7.400000
v 0.000000 2.100000 -0.900000
v 5.539999 3.200001 -22.299999
v 5.539999 3.200001 -21.879999
v 0.300000 0.000000 0.000000
v 0.870000 0.000000 0.000000
v 0.870000 3.200001 0.280000
v 0.870000 1.200000 0.000000
v 2.470000 1.200000 0.280000
v 5.239999 2.100000 -19.599998
v 5.840001 2.100000 -9.299999
v 5.840001 2.100000 -10.400000
v 0.000000 0.000000 -8.075000
v 0.000000 2.100000 -8.075000
v 5.239999 0.000000 -10.400000
v 5.539999 0.000000 -19.599998
v 0.000000 0.900000 -8.975001
v 6.570000 0.000000 -20.580000
v 0.210000 3.200001 -15.275002
v 0.000000 2.100000 -15.275002
v 0.000000 0.000000 -18.315001
v 0.000000 3.200001 -21.815001
v 0.410000 3.200001 -22.299999
v 0.410000 3.200001 -21.815001
v 1.640000 2.730000 -22.299999
v 1.640000 0.000000 -22.299999
v 0.210000 3.200001 -8.075000
v 0.210000 3.200001 -14.375000
v 0.210000 3.200001 -7.400000
v 6.570000 3.200001 -20.580000
v 0.300000 3.200001 0.000000
v 0.000000 3.200001 -15.275002
v 2.470000 1.050000 0.000000
v 0.210000 0.000000 -15.275002
v 0.000000 0.000000 -8.975001
v 5.239999 0.000000 -19.599998
v 5.239999 0.000000 -15.799998
v 5.239999 0.000000 -9.299999
v 0.000000 0.000000 -6.570022
v 0.000000 0.000000 -7.400000
v 2.470000 1.200000 0.000000
v 0.410000 2.730000 -22.299999
v 5.539999 0.000000 -22.299999
v 0.000000 1.300000 -6.570022
v 0.000000 0.900000 -8.075000
v 0.000000 1.300000 -12.453917
v 0.000000 0.900000 -14.375000
v 0.000000 0.900000 -7.400000
v 0.000000 0.900000 -4.970020
v 0.000000 0.900000 -0.900000
v 0.000000 2.100000 -8.975001
v 0.000000 2.100000 -21.815001
v 0.000000 0.900000 -18.315001
v 0.000000 0.900000 -15.275002
v 5.239999 2.100000 -10.400000
v 5.239999 0.900000 -0.000000
v 5.239999 2.100000 -16.900000
v 5.239999 0.900000 -16.900000
v 5.239999 2.100000 -9.299999
v 5.239999 0.900000 -15.799998
v 5.239999 0.900000 -19.599998
v 6.570000 3.200001 -21.879999
v 0.870000 1.200000 0.280000
v 0.410000 2.730000 -22.589998
v 0.410000 0.000000 -22.589998
v 0.000000 0.000000 -12.453917
v 0.850000 1.300000 -12.453917
v 0.000000 1.300000 -10.853917
v 0.850000 1.300000 -10.853917
v 0.000000 0.900000 -6.570022
v 0.850000 1.300000 -6.570022
v 0.000000 1.300000 -4.970020
v 0.850000 1.300000 -4.970020
v 0.000000 0.900000 -10.853917
v 0.000000 0.000000 -10.853917
v 0.000000 0.900000 -12.453917
v 0.850000 0.000000 -12.453917
v 0.850000 0.000000 -10.853917
v 0.850000 0.000000 -4.970020
v 5.539999 0.000000 -21.879999
v 6.570000 0.000000 -21.879999
v 0.870000 1.050000 0.000000
v 0.210000 0.000000 -8.075000
v 5.840001 0.000000 -10.400000
v 5.239999 0.000000 -16.900000
v 5.539999 0.000000 -20.580000
v 2.470000 1.200000 -2.100000
v 0.870000 0.150000 -4.199999
v 0.870000 0.300000 -3.225000
v 0.870000 0.600000 -2.999999
v 0.870000 0.900000 -2.400000
v 0.870000 1.200000 -2.100000
v 0.870000 0.300000 -3.600000
v 0.870000 0.450000 -3.600000
v 0.870000 1.050000 -2.100000
v 2.470000 0.900000 -2.700000
v 2.470000 0.600000 -2.625001
v 2.470000 0.750000 -2.999999
v 2.470000 0.450000 -2.925000
v 2.470000 0.300000 -3.524999
v 2.470000 0.000000 -4.199999
v 2.470000 0.150000 -3.899999
v 2.470000 0.000000 -3.825001
v 2.470000 0.150000 -3.825001
v 2.470000 0.300000 -3.225000
v 2.470000 0.750000 -2.325000
v 2.470000 1.050000 -2.025000
v 0.870000 1.050000 -2.025000
v 0.870000 0.900000 -2.025000
v 2.470000 0.900000 -2.025000
v 2.470000 0.900000 -2.325000
v 0.870000 0.900000 -2.325000
v 0.870000 0.750000 -2.625001
v 2.470000 0.750000 -2.625001
v 0.870000 0.750000 -2.325000
v 0.870000 0.600000 -2.925000
v 0.870000 0.600000 -2.625001
v 0.870000 0.450000 -2.925000
v 2.470000 0.600000 -2.925000
v 0.870000 0.450000 -3.225000
v 2.470000 0.450000 -3.225000
v 0.870000 0.300000 -3.524999
v 0.870000 0.150000 -3.524999
v 2.470000 0.150000 -3.524999
v 0.870000 0.150000 -3.825001
v 2.470000 0.150000 -4.199999
v 0.870000 0.000000 -4.199999
v 0.870000 0.300000 -3.899999
v 0.870000 0.150000 -3.899999
v 2.470000 0.300000 -3.600000
v 2.470000 0.300000 -3.899999
v 0.870000 0.450000 -3.300001
v 2.470000 0.450000 -3.600000
v 0.870000 0.600000 -3.300001
v 2.470000 0.600000 -3.300001
v 2.470000 0.450000 -3.300001
v 2.470000 0.600000 -2.999999
v 0.870000 0.750000 -2.999999
v 0.870000 0.750000 -2.700000
v 2.470000 0.750000 -2.700000
v 0.870000 0.900000 -2.700000
v 2.470000 0.900000 -2.400000
v 2.470000 1.050000 -2.400000
v 0.870000 1.050000 -2.400000
v 2.470000 1.050000 -2.100000
v 0.410000 0.000000 -21.815001
v 0.000000 0.000000 -19.615000
v 0.000000 0.000000 -21.815001
v 0.000000 0.000000 -15.275002
v 0.210000 0.000000 -14.375000
v 0.210000 0.000000 -7.400000
v 0.850000 0.000000 -6.570022
v 0.000000 0.000000 -0.900000
v 0.300000 0.000000 -0.900000
v 0.870000 0.000000 -3.825001
v 5.239999 0.000000 0.000000
v 0.000000 0.000000 -14.375000
v 1.058235 1.200000 0.000000
vt 0.000000 0.000000
vt 0.000000 0.000000
vt 0.000000 0.000000
vt 0.000000 0.000000
vt 0.000000 0.000000
vt 0.000000 0.000000
vt 0.000000 0.000000
vt 0.000000 0.000000
vt 0.000000 0.000000
vt 0.000000 0.000000
vt 0.000000 0.000000
vt 0.000000 0.000000
vt 0.000000 0.000000
vt 0.000000 0.000000
vt 0.000000 0.000000
vt 0.000000 0.000000
vt 0.000000 0.000000
vt 0.000000 0.000000
vt 0.000000 0.000000
vt 0.000000 0.000000
vt 0.000000 0.000000
vt 0.000000 0.000000
vt 0.000000 0.000000
vt 0.000000 0.000000
vt 0.000000 0.000000
vt 0.000000 0.000000
vt 0.000000 0.000000
vt 0.000000 0.000000
vt 0.000000 0.000000
vt 0.000000 0.000000
vt 0.000000 0.000000
vt 0.000000 0.000000
vt 0.000000 0.000000
vt 0.000000 0.000000
vt 0.000000 0.000000
vt 0.000000 0.000000
vt 0.000000 0.000000
vt 0.000000 0.000000
vt 0.000000 0.000000
vt 0.000000 0.000000
vt 0.000000 0.000000
vt 0.000000 0.000000
vt 0.000000 0.000000
vt 0.000000 0.000000
vt 0.000000 0.000000
vt 0.000000 0.000000
vt 0.000000 0.000000
vt 0.000000 0.000000
vt 0.000000 0.000000
vt 0.000000 0.000000
vt 0.000000 0.000000
vt 0.000000 0.000000
vt 0.000000 0.000000
vt 0.000000 0.000000
vt 0.000000 0.000000
vt 0.000000 0.000000
vt 0.000000 0.000000
vt 0.000000 0.000000
vt 0.000000 0.000000
vt 0.000000 0.000000
vt 0.000000 0.000000
vt 0.000000 0.000000
vt 0.000000 0.000000
vt 0.000000 0.000000
vt 0.000000 0.000000
vt 0.000000 0.000000
vt 0.000000 0.000000
vt 0.000000 0.000000
vt 0.000000 0.000000
vt 0.000000 0.000000
vt 0.000000 0.000000
vt 0.000000 0.000000
vt 0.000000 0.000000
vt 0.000000 0.000000
vt 0.000000 0.000000
vt 0.000000 0.000000
vt 0.000000 0.000000
vt 0.000000 0.000000
vt 0.000000 0.000000
vt 0.000000 0.000000
vt 0.000000 0.000000
vt 0.000000 0.000000
vt 0.000000 0.000000
vt 0.000000 0.000000
vt 0.000000 0.000000
vt 0.000000 0.000000
vt 0.000000 0.000000
vt 0.000000 0.000000
vt 0.000000 0.000000
vt 0.000000 0.000000
vt 0.000000 0.000000
vt 0.000000 0.000000
vt 0.000000 0.000000
vt 0.000000 0.000000
vt 0.000000 0.000000
vt 0.000000 0.000000
vt 0.000000 0.000000
vt 0.000000 0.000000
vt 0.000000 0.000000
vt 0.000000 0.000000
vt 0.000000 0.000000
vt 0.000000 0.000000
vt 0.000000 0.000000
vt 0.000000 0.000000
vt 0.000000 0.000000
vt 0.000000 0.000000
vt 0.000000 0.000000
vt 0.000000 0.000000
vt 0.000000 0.000000
vt 0.000000 0.000000
vt 0.000000 0.000000
vt 0.000000 0.000000
vt 0.000000 0.000000
vt 0.000000 0.000000
vt 0.000000 0.000000
vt 0.000000 0.000000
vt 0.000000 0.000000
vt 0.000000 0.000000
vt 0.000000 0.000000
vt 0.000000 0.000000
vt 0.000000 0.000000
vt 0.557743 0.853018
vt 0.557743 0.000000
vt 0.000000 0.590551
vt 0.000000 0.853018
vt -8.171862 0.853018
vt -7.121993 0.853018
vt -7.121993 0.000000
vt -8.171862 0.000000
vt -0.557743 8.171862
vt 0.000000 8.171862
vt 0.000000 7.121993
vt -0.557743 7.121993
vt 0.000000 0.590551
vt -0.557743 0.000000
vt -0.557743 0.853018
vt 0.000000 0.853018
vt 0.000000 0.000000
vt 0.000000 0.000000
vt 0.000000 0.000000
vt 0.000000 0.000000
vt 0.000000 0.000000
vt 0.000000 0.000000
vt 0.000000 0.000000
vt 0.000000 0.000000
vt 0.000000 0.000000
vt 0.000000 0.000000
vt 0.000000 0.000000
vt 0.000000 0.000000
vt 0.000000 0.000000
vt 0.000000 0.000000
vt 0.000000 0.000000
vt 0.000000 0.000000
vt 0.000000 0.000000
vt 0.000000 0.000000
vt 0.000000 0.000000
vt 0.000000 0.000000
vt 0.000000 0.000000
vt 0.000000 0.000000
vt 0.000000 0.000000
vt 0.000000 0.000000
vt 0.000000 0.000000
vt 0.000000 0.000000
vt 0.000000 0.000000
vt 0.000000 0.000000
vt 0.000000 0.000000
vt 0.000000 0.000000
vt 0.000000 0.000000
vt 0.000000 0.000000
vt 0.000000 0.000000
vt 0.000000 0.000000
vt 0.000000 0.000000
vt 0.000000 0.000000
vt 0.000000 0.000000
vt 0.000000 0.000000
vt 0.000000 0.000000
vt 0.000000 0.000000
vt 0.000000 0.000000
vt 0.000000 0.000000
vt 0.000000 0.000000
vt 0.000000 0.000000
vt 0.000000 0.000000
vt 0.000000 0.000000
vt 0.000000 0.000000
vt 0.000000 0.000000
vt 0.000000 0.000000
vt 0.000000 0.000000
vt 0.000000 0.000000
vt 0.000000 0.000000
vt 0.000000 0.000000
vt 0.000000 0.000000
vt 0.000000 0.000000
vt 0.000000 0.000000
vt 0.000000 0.000000
vt 0.000000 0.000000
vt 0.000000 0.000000
vt 0.000000 0.000000
vt 0.000000 0.000000
vt 0.000000 0.000000
vt 0.000000 0.000000
vt 0.000000 0.000000
vt 0.000000 0.000000
vt 0.000000 0.000000
vt 0.000000 0.000000
vn -1.0000 0.0000 0.0000
vn 1.0000 0.0000 0.0000
vn 0.0000 0.0000 1.0000
vn 0.0000 -1.0000 0.0000
vn 0.0000 1.0000 0.0000
vn 0.0000 0.0000 -1.0000
usemtl Drzwi
s off
f 7/1/1 8/2/1 4/3/1
f 4/3/1 1/4/1 7/1/1
f 116/5/1 28/6/1 43/7/1
f 43/7/1 44/8/1 116/5/1
f 6/9/2 29/10/2 85/11/2
f 85/11/2 53/12/2 6/9/2
f 53/12/2 179/13/2 6/9/2
f 179/13/2 2/14/2 6/9/2
f 5/15/2 83/16/2 49/17/2
f 49/17/2 67/18/2 5/15/2
f 67/18/2 30/19/2 5/15/2
f 30/19/3 3/20/3 5/15/3
usemtl Sufit
f 59/21/4 12/22/4 15/23/4
f 15/23/4 60/24/4 59/21/4
f 60/24/5 51/25/5 59/21/5
f 16/26/4 9/27/4 17/28/4
f 17/28/4 61/29/4 16/26/4
f 61/29/4 59/21/4 16/26/4
f 21/30/4 39/31/4 18/32/4
f 62/33/4 14/34/4 36/35/4
f 36/35/4 94/36/4 62/33/4
f 18/32/4 63/37/4 16/26/4
f 16/26/4 56/38/4 18/32/4
f 56/38/4 55/39/4 18/32/4
f 55/39/4 35/40/4 18/32/4
f 35/40/4 19/41/4 18/32/4
f 19/41/4 21/30/4 18/32/4
f 35/40/4 10/42/4 19/41/4
f 10/42/4 11/43/4 19/41/4
f 35/40/4 13/44/4 10/42/4
f 35/40/3 14/34/3 13/44/3
f 35/40/4 36/35/4 14/34/4
f 51/25/4 64/45/4 54/46/4
f 54/46/4 56/38/4 51/25/4
f 56/38/4 59/21/4 51/25/4
f 56/38/4 16/26/4 59/21/4
usemtl Panele-pelne
f 75/47/1 112/48/1 36/35/1
f 36/35/1 35/40/1 75/47/1
f 36/35/3 112/48/3 113/49/3
f 113/49/3 94/36/3 36/35/3
f 106/50/2 3/20/2 30/19/2
f 30/19/2 107/51/2 106/50/2
f 16/26/2 63/37/2 37/52/2
f 37/52/2 186/53/2 16/26/2
f 16/26/6 186/53/6 185/54/6
f 185/54/6 82/55/6 16/26/6
f 82/55/6 34/56/6 16/26/6
f 34/56/6 9/27/6 16/26/6
f 114/57/6 38/58/6 37/52/6
f 37/52/6 63/37/6 114/57/6
f 63/37/6 40/59/6 114/57/6
f 63/37/6 18/32/6 40/59/6
f 81/60/2 82/55/2 185/54/2
f 185/54/2 20/61/2 81/60/2
f 17/28/2 9/27/2 34/56/2
f 34/56/2 33/62/2 17/28/2
f 27/63/6 88/64/6 65/65/6
f 65/65/6 73/66/6 27/63/6
f 73/66/6 19/41/6 27/63/6
f 19/41/6 11/43/6 27/63/6
f 88/64/6 188/67/6 38/58/6
f 38/58/6 114/57/6 88/64/6
f 114/57/6 65/65/6 88/64/6
f 18/32/2 39/31/2 95/68/2
f 95/68/2 40/59/2 18/32/2
f 80/69/3 72/70/3 183/71/3
f 183/71/3 61/29/3 80/69/3
f 61/29/3 33/62/3 80/69/3
f 61/29/3 17/28/3 33/62/3
f 73/66/1 41/72/1 21/30/1
f 21/30/1 19/41/1 73/66/1
f 70/73/1 188/67/1 88/64/1
f 88/64/1 26/74/1 70/73/1
f 27/63/1 11/43/1 10/42/1
f 10/42/1 91/75/1 27/63/1
f 10/42/1 87/76/1 91/75/1
f 10/42/1 25/77/1 87/76/1
f 10/42/1 89/78/1 25/77/1
f 10/42/1 42/79/1 89/78/1
f 80/69/2 102/80/2 71/81/2
f 71/81/2 72/70/2 80/69/2
f 59/21/2 61/29/2 183/71/2
f 183/71/2 115/82/2 59/21/2
f 43/7/6 28/6/6 70/73/6
f 70/73/6 26/74/6 43/7/6
f 26/74/6 91/75/6 43/7/6
f 43/7/4 91/75/4 87/76/4
f 87/76/4 44/8/4 43/7/4
f 4/3/4 25/77/4 89/78/4
f 89/78/4 1/4/4 4/3/4
f 13/44/6 48/83/6 68/84/6
f 68/84/6 93/85/6 13/44/6
f 93/85/6 42/79/6 13/44/6
f 42/79/6 10/42/6 13/44/6
f 59/21/6 115/82/6 45/86/6
f 45/86/6 77/87/6 59/21/6
f 77/87/6 46/88/6 59/21/6
f 46/88/6 12/22/6 59/21/6
f 24/89/3 47/90/3 116/5/3
f 116/5/3 44/8/3 24/89/3
f 44/8/3 87/76/3 24/89/3
f 4/3/6 8/2/6 69/91/6
f 69/91/6 92/92/6 4/3/6
f 92/92/6 25/77/6 4/3/6
f 90/93/3 117/94/3 7/1/3
f 7/1/3 1/4/3 90/93/3
f 1/4/3 89/78/3 90/93/3
f 68/84/1 117/94/1 90/93/1
f 90/93/1 93/85/1 68/84/1
f 118/95/1 48/83/1 13/44/1
f 13/44/1 14/34/1 118/95/1
f 49/17/2 77/87/2 45/86/2
f 45/86/2 67/18/2 49/17/2
f 15/23/2 12/22/2 46/88/2
f 46/88/2 83/16/2 15/23/2
f 83/16/2 5/15/2 15/23/2
f 5/15/2 32/96/2 15/23/2
f 69/91/1 47/90/1 24/89/1
f 24/89/1 92/92/1 69/91/1
f 62/33/6 50/97/6 118/95/6
f 118/95/6 14/34/6 62/33/6
f 79/98/3 189/99/3 182/100/3
f 182/100/3 60/24/3 79/98/3
f 60/24/3 32/96/3 79/98/3
f 60/24/3 15/23/3 32/96/3
f 79/98/2 108/101/2 98/102/2
f 98/102/2 189/99/2 79/98/2
f 51/25/2 60/24/2 182/100/2
f 182/100/2 66/103/2 51/25/2
f 51/25/6 66/103/6 181/104/6
f 181/104/6 86/105/6 51/25/6
f 86/105/6 52/106/6 51/25/6
f 52/106/6 64/45/6 51/25/6
f 54/46/2 64/45/2 52/106/2
f 52/106/2 29/10/2 54/46/2
f 29/10/2 6/9/2 54/46/2
f 6/9/2 84/107/2 54/46/2
f 85/11/2 86/105/2 181/104/2
f 181/104/2 53/12/2 85/11/2
f 31/108/3 180/109/3 178/110/3
f 178/110/3 56/38/3 31/108/3
f 56/38/3 84/107/3 31/108/3
f 56/38/3 54/46/3 84/107/3
f 2/14/2 179/13/2 180/109/2
f 180/109/2 31/108/2 2/14/2
f 55/39/2 56/38/2 178/110/2
f 178/110/2 74/111/2 55/39/2
f 178/110/2 97/112/2 74/111/2
f 97/112/2 96/113/2 74/111/2
f 57/114/4 74/111/4 96/113/4
f 96/113/4 23/115/4 57/114/4
f 22/116/1 58/117/1 57/114/1
f 57/114/1 23/115/1 22/116/1
usemtl Sciana-kamienie
f 55/39/3 74/111/3 57/114/3
f 57/114/3 58/117/3 75/47/3
f 75/47/3 35/40/3 57/114/3
f 35/40/3 55/39/3 57/114/3
usemtl Panele-perf
f 29/10/2 52/106/2 86/105/2
f 86/105/2 85/11/2 29/10/2
f 84/107/2 6/9/2 2/14/2
f 2/14/2 31/108/2 84/107/2
f 83/16/2 46/88/2 77/87/2
f 77/87/2 49/17/2 83/16/2
f 5/15/2 3/20/2 100/118/2
f 100/118/2 32/96/2 5/15/2
f 100/118/2 78/119/2 32/96/2
f 78/119/2 108/101/2 32/96/2
f 108/101/2 79/98/2 32/96/2
f 106/50/2 100/118/2 3/20/2
f 33/62/2 34/56/2 82/55/2
f 82/55/2 104/120/2 33/62/2
f 104/120/2 76/121/2 33/62/2
f 76/121/2 102/80/2 33/62/2
f 102/80/2 80/69/2 33/62/2
f 81/60/2 104/120/2 82/55/2
usemtl Witryny
f 92/92/1 24/89/1 87/76/1
f 87/76/1 25/77/1 92/92/1
f 26/74/1 88/64/1 27/63/1
f 27/63/1 91/75/1 26/74/1
f 93/85/1 90/93/1 89/78/1
f 89/78/1 42/79/1 93/85/1
usemtl Wyjscia
f 113/49/1 50/97/1 62/33/1
f 62/33/1 94/36/1 113/49/1
f 21/30/6 41/72/6 95/68/6
f 95/68/6 39/31/6 21/30/6
f 96/113/3 97/112/3 22/116/3
f 22/116/3 23/115/3 96/113/3
usemtl Fotele
f 99/122/6 109/123/6 98/102/6
f 98/102/6 108/124/6 99/122/6
f 108/124/6 78/125/6 99/122/6
f 99/126/2 101/127/2 110/128/2
f 110/128/2 109/129/2 99/126/2
f 99/130/5 78/131/5 100/132/5
f 100/132/5 101/133/5 99/130/5
f 106/134/3 107/51/3 110/135/3
f 110/135/3 101/136/3 106/134/3
f 101/136/3 100/137/3 106/134/3
f 103/138/6 184/139/6 71/81/6
f 71/81/6 102/80/6 103/138/6
f 102/80/6 76/121/6 103/138/6
f 103/138/2 105/140/2 111/141/2
f 111/141/2 184/139/2 103/138/2
f 103/138/5 76/121/5 104/120/5
f 104/120/5 105/140/5 103/138/5
f 81/60/3 20/61/3 111/141/3
f 111/141/3 105/140/3 81/60/3
f 105/140/3 104/120/3 81/60/3
usemtl Podloga
f 119/142/5 124/143/5 40/59/5
f 73/66/5 190/144/5 41/72/5
f 190/144/5 40/59/5 95/68/5
f 159/145/1 187/146/1 157/147/1
f 157/147/1 161/148/1 159/145/1
f 161/148/1 120/149/1 159/145/1
f 157/147/1 155/150/1 154/151/1
f 154/151/1 125/152/1 157/147/1
f 125/152/1 160/153/1 157/147/1
f 160/153/1 161/148/1 157/147/1
f 154/151/1 121/154/1 152/155/1
f 152/155/1 164/156/1 154/151/1
f 164/156/1 126/157/1 154/151/1
f 126/157/1 125/152/1 154/151/1
f 152/155/1 150/158/1 148/159/1
f 148/159/1 122/160/1 152/155/1
f 122/160/1 166/161/1 152/155/1
f 166/161/1 164/156/1 152/155/1
f 148/159/1 149/162/1 145/163/1
f 145/163/1 171/164/1 148/159/1
f 171/164/1 170/165/1 148/159/1
f 170/165/1 122/160/1 148/159/1
f 145/163/1 147/166/1 144/167/1
f 144/167/1 123/168/1 145/163/1
f 123/168/1 173/169/1 145/163/1
f 173/169/1 171/164/1 145/163/1
f 144/167/1 141/170/1 140/171/1
f 140/171/1 127/172/1 144/167/1
f 127/172/1 176/173/1 144/167/1
f 176/173/1 123/168/1 144/167/1
f 140/171/1 114/57/1 40/59/1
f 40/59/1 124/143/1 140/171/1
f 124/143/1 127/172/1 140/171/1
f 119/142/6 177/174/6 127/172/6
f 127/172/6 124/143/6 119/142/6
f 119/142/2 73/66/2 65/65/2
f 65/65/2 139/175/2 119/142/2
f 139/175/2 142/176/2 119/142/2
f 142/176/2 177/174/2 119/142/2
f 142/176/2 143/177/2 177/174/2
f 143/177/2 175/178/2 177/174/2
f 143/177/2 138/179/2 175/178/2
f 138/179/2 174/180/2 175/178/2
f 138/179/2 146/181/2 174/180/2
f 146/181/2 128/182/2 174/180/2
f 146/181/2 129/183/2 128/182/2
f 129/183/2 172/184/2 128/182/2
f 129/183/2 151/185/2 172/184/2
f 151/185/2 130/186/2 172/184/2
f 151/185/2 131/187/2 130/186/2
f 131/187/2 169/188/2 130/186/2
f 131/187/2 153/189/2 169/188/2
f 153/189/2 167/190/2 169/188/2
f 153/189/2 137/191/2 167/190/2
f 137/191/2 168/192/2 167/190/2
f 137/191/2 132/193/2 168/192/2
f 132/193/2 165/194/2 168/192/2
f 132/193/2 156/195/2 165/194/2
f 156/195/2 162/196/2 165/194/2
f 156/195/2 136/197/2 162/196/2
f 136/197/2 163/198/2 162/196/2
f 136/197/2 135/199/2 163/198/2
f 135/199/2 134/200/2 163/198/2
f 135/199/2 133/201/2 134/200/2
f 133/201/2 158/202/2 134/200/2
f 65/65/4 114/57/4 140/171/4
f 140/171/4 139/175/4 65/65/4
f 140/171/3 141/170/3 142/176/3
f 142/176/3 139/175/3 140/171/3
f 142/176/4 141/170/4 144/167/4
f 144/167/4 143/177/4 142/176/4
f 144/167/3 147/166/3 138/179/3
f 138/179/3 143/177/3 144/167/3
f 138/179/4 147/166/4 145/163/4
f 145/163/4 146/181/4 138/179/4
f 145/163/3 149/162/3 129/183/3
f 129/183/3 146/181/3 145/163/3
f 129/183/4 149/162/4 148/159/4
f 148/159/4 151/185/4 129/183/4
f 148/159/3 150/158/3 131/187/3
f 131/187/3 151/185/3 148/159/3
f 131/187/4 150/158/4 152/155/4
f 152/155/4 153/189/4 131/187/4
f 152/155/3 121/154/3 137/191/3
f 137/191/3 153/189/3 152/155/3
f 137/191/4 121/154/4 154/151/4
f 154/151/4 132/193/4 137/191/4
f 154/151/3 155/150/3 156/195/3
f 156/195/3 132/193/3 154/151/3
f 156/195/4 155/150/4 157/147/4
f 157/147/4 136/197/4 156/195/4
f 157/147/3 187/146/3 135/199/3
f 135/199/3 136/197/3 157/147/3
f 158/202/6 133/201/6 159/145/6
f 159/145/6 120/149/6 158/202/6
f 158/202/5 120/149/5 161/148/5
f 161/148/5 134/200/5 158/202/5
f 134/200/6 161/148/6 160/153/6
f 160/153/6 163/198/6 134/200/6
f 163/198/5 160/153/5 125/152/5
f 125/152/5 162/196/5 163/198/5
f 165/194/6 162/196/6 125/152/6
f 125/152/6 126/157/6 165/194/6
f 165/194/5 126/157/5 164/156/5
f 164/156/5 168/192/5 165/194/5
f 167/190/6 168/192/6 164/156/6
f 164/156/6 166/161/6 167/190/6
f 167/190/5 166/161/5 122/160/5
f 122/160/5 169/188/5 167/190/5
f 130/186/6 169/188/6 122/160/6
f 122/160/6 170/165/6 130/186/6
f 130/186/5 170/165/5 171/164/5
f 171/164/5 172/184/5 130/186/5
f 128/182/6 172/184/6 171/164/6
f 171/164/6 173/169/6 128/182/6
f 128/182/5 173/169/5 123/168/5
f 123/168/5 174/180/5 128/182/5
f 175/178/6 174/180/6 123/168/6
f 123/168/6 176/173/6 175/178/6
f 175/178/5 176/173/5 127/172/5
f 127/172/5 177/174/5 175/178/5
f 178/110/5 180/109/5 179/13/5
f 179/13/5 53/12/5 178/110/5
f 53/12/5 181/104/5 178/110/5
f 181/104/5 66/103/5 178/110/5
f 66/103/5 182/100/5 178/110/5
f 110/203/5 107/51/5 30/19/5
f 30/19/5 67/18/5 110/203/5
f 67/18/5 45/86/5 110/203/5
f 45/86/5 115/82/5 110/203/5
f 115/82/5 183/71/5 110/203/5
f 113/49/5 112/48/5 118/95/5
f 118/95/5 50/97/5 113/49/5
f 22/116/5 97/112/5 178/110/5
f 178/110/5 109/204/5 22/116/5
f 109/204/5 110/203/5 22/116/5
f 110/203/5 184/139/5 22/116/5
f 184/139/5 111/141/5 22/116/5
f 111/141/5 159/145/5 22/116/5
f 159/145/5 58/117/5 22/116/5
f 159/145/5 133/201/5 58/117/5
f 133/201/5 75/47/5 58/117/5
f 133/201/5 135/199/5 75/47/5
f 135/199/5 68/84/5 75/47/5
f 68/84/5 48/83/5 75/47/5
f 48/83/5 112/48/5 75/47/5
f 48/83/4 118/95/4 112/48/4
f 7/1/5 117/94/5 69/91/5
f 69/91/5 8/2/5 7/1/5
f 116/5/5 47/90/5 70/73/5
f 70/73/5 28/6/5 116/5/5
f 111/141/5 20/61/5 185/54/5
f 185/54/5 186/53/5 111/141/5
f 186/53/5 37/52/5 111/141/5
f 37/52/5 38/58/5 111/141/5
f 38/58/5 159/145/5 111/141/5
f 38/58/4 187/146/4 159/145/4
f 38/58/5 188/67/5 187/146/5
f 188/67/5 135/199/5 187/146/5
f 188/67/5 68/84/5 135/199/5
f 188/67/4 117/94/4 68/84/4
f 188/67/4 69/91/4 117/94/4
f 188/67/5 47/90/5 69/91/5
f 188/67/5 70/73/5 47/90/5
f 183/71/5 72/70/5 71/81/5
f 71/81/5 184/139/5 183/71/5
f 184/139/5 110/203/5 183/71/5
f 182/100/5 189/99/5 98/102/5
f 98/102/5 109/204/5 182/100/5
f 109/204/5 178/110/5 182/100/5
f 119/142/5 40/59/5 190/144/5
f 95/68/5 41/72/5 190/144/5
f 119/142/5 190/144/5 73/66/5
